PathFileType	4	(X/Y/Z)	G:\TennisProject\Miami_Dimitrov_Sinner_masked_Sports2D\Miami_Dimitrov_Sinner_masked_Sports2D_px_person01.trc
DataRate	CameraRate	NumFrames	NumMarkers	Units	OrigDataRate	OrigDataStartFrame	OrigNumFrames
25	25	4	22	m	25	249	499
Frame#	Time	Hip			RHip			RKnee			RAnkle			RBigToe			RSmallToe			RHeel			LHip			LKnee			LAnkle			LBigToe			LSmallToe			LHeel			Neck			Head			Nose			RShoulder			RElbow			RWrist			LShoulder			LElbow			LWrist		
		X1	Y1	Z1	X2	Y2	Z2	X3	Y3	Z3	X4	Y4	Z4	X5	Y5	Z5	X6	Y6	Z6	X7	Y7	Z7	X8	Y8	Z8	X9	Y9	Z9	X10	Y10	Z10	X11	Y11	Z11	X12	Y12	Z12	X13	Y13	Z13	X14	Y14	Z14	X15	Y15	Z15	X16	Y16	Z16	X17	Y17	Z17	X18	Y18	Z18	X19	Y19	Z19	X20	Y20	Z20	X21	Y21	Z21	X22	Y22	Z22
249	9.96	534.6964661241011	801.9141931407005	0.0	543.3065312528097	805.1012228634186	0.0	583.6497056533273	853.1823096069404	0.0	569.2050492060173	913.3995247859123	0.0	596.9712623780399	923.1589887523223	0.0	590.6758296029052	925.5996631987721	0.0	561.8143840359224	920.0612091102776	0.0	530.9368792647939	798.1380835664697	0.0	530.9056066342924	835.5515701949394	0.0	495.97829192819034	876.7815038324084	0.0	512.5414532666455	886.1889958585098	0.0	508.2752224052106	884.7620440305533	0.0	486.0309623939262	881.8237528066936	0.0	591.745515075532	741.5087915518517	0.0	613.7663102558203	708.2160483099078	0.0	606.6568146206196	730.4015360626643	0.0	571.0521053408495	750.4977440651896	0.0	546.7749233398265	778.5512606695908	0.0	553.5096504831565	809.2587324792984	0.0	603.6348376265719	742.0610385542067	0.0	632.8053008454565	758.6214250254062	0.0	665.6301274279251	777.5593313244943	0.0
250	10.0	529.4304822630776	796.0942780823486	0.0	539.2050990927892	800.2962021052372	0.0	576.9513960053537	849.5160538777205	0.0	567.9603991450481	911.6824691120863	0.0	594.7931395379442	921.4532542782665	0.0	589.1786857087418	924.2123713311871	0.0	561.3447652163665	918.710214717099	0.0	523.8245130854168	792.1043955238526	0.0	524.4463402532409	832.413010328655	0.0	493.03061675673837	875.5763434996888	0.0	509.8934004266677	884.0692337081877	0.0	506.3948214684442	883.3799827017667	0.0	484.124884418012	881.6961460680013	0.0	583.6697220064442	734.8895506067929	0.0	607.4758381315768	702.4011084936151	0.0	600.4373999437574	724.1198033734622	0.0	567.137582175515	749.2695964281763	0.0	550.6355842297256	783.0010340283504	0.0	554.9526151085222	814.9796090097217	0.0	587.7738146077708	732.5838813786851	0.0	611.5532188442451	747.9979528095821	0.0	642.4145861056744	765.7770041076201	0.0
251	10.040000000000001	527.8784157139737	789.297940806739	0.0	538.9121576952845	794.6462096760044	0.0	570.9775830033026	845.6306071848223	0.0	564.8852616556744	907.4691060001437	0.0	589.4828676014657	919.705610365366	0.0	585.1862637542424	922.4977188679587	0.0	558.4717047319284	915.1898514893559	0.0	518.5082982538346	785.6709506329676	0.0	520.1602603210135	827.8899771107758	0.0	492.159858216069	873.3705450866856	0.0	508.7091886317874	882.8932597524135	0.0	504.2890724838802	882.0099887788386	0.0	484.5041189585585	880.3550970831003	0.0	576.0031572278671	725.6631085911165	0.0	602.6937540426741	694.7641820857227	0.0	596.4500341730156	716.435697738807	0.0	569.3184218944155	746.1641677875691	0.0	563.61626755191	784.7789241752607	0.0	571.9457660164687	816.1310685253459	0.0	567.4096090834083	719.2669200243831	0.0	578.2370298463011	731.4057166826109	0.0	603.6293430940372	746.3604895224023	0.0
252	10.08	528.4918198525766	783.5796135936496	0.0	540.2591815731502	789.1028471178889	0.0	565.2738501995981	843.2418319498586	0.0	558.8257092760266	901.3468127748681	0.0	579.3351144810789	918.9998791572355	0.0	577.100616235875	921.0165844135302	0.0	552.0740671123813	909.2454714246328	0.0	515.6460603124877	780.2487511253576	0.0	518.1255676354906	821.3711674884311	0.0	493.6098339247061	869.0855616970389	0.0	509.8623034641603	881.6907660217809	0.0	504.6149433279037	880.1646446056036	0.0	486.94015969957366	876.5255354484023	0.0	568.6817176573479	716.4877318141993	0.0	597.2598662809421	686.4324410699381	0.0	591.0719834446395	708.5566979673955	0.0	574.4009435817836	739.3478582126365	0.0	581.6382763177498	778.9022172988505	0.0	598.9064769961578	804.4814028377523	0.0	549.1941150953039	706.8145303262252	0.0	540.8219394424581	713.8271904780197	0.0	560.5922404789676	724.5214473624292	0.0
